<svg width="94" height="66" viewBox="0 0 94 66" fill="none" xmlns="http://www.w3.org/2000/svg">
<path d="M80.9271 1.53399C78.015 2.60777 78.015 2.76117 80.6206 3.83496C83.2262 4.90875 83.2262 5.06214 80.314 7.20972C78.015 8.7437 76.329 8.8971 74.1832 7.66991C70.1981 5.52234 62.8411 5.67574 60.5421 7.97671C59.1626 9.35729 58.243 9.35729 56.8636 7.97671C53.6449 4.75535 45.0617 5.82913 40.9234 9.97088C38.1645 12.732 35.4056 13.8058 31.2673 13.8058C19.4654 13.8058 14.8673 26.0777 22.8374 36.3554C27.5888 42.4913 26.2093 45.7126 20.0785 42.7981C16.5533 41.2641 15.1738 41.7243 8.12336 46.4796L0 52.002L3.98505 53.8427C6.8972 55.2233 8.12336 56.9107 8.42991 60.899L8.88972 65.9612L17.0131 60.5922C23.4505 56.1437 24.9832 54.3029 24.9832 50.7748C24.9832 44.1787 29.2748 43.4117 34.7925 48.934L39.3907 53.5359L46.1346 47.4C52.572 41.2641 52.8785 41.2641 55.7907 43.8719C58.8561 46.633 59.1626 46.4796 69.7383 35.5884C80.314 24.6971 80.4673 24.3903 79.8542 17.7942C79.2411 12.5786 79.5477 10.8913 81.8467 9.51069C85.372 7.36311 86.7514 7.20972 85.5252 9.05049C85.0654 9.81748 85.2187 10.8913 85.9851 11.1981C86.5981 11.6583 88.5907 9.35729 90.4299 5.98253L93.6486 6.52671e-06L88.8972 0.153405C86.1383 0.153405 82.6131 0.766997 80.9271 1.53399ZM58.7028 10.7379C59.929 10.7379 63.6075 10.4311 66.8262 9.81748C74.4897 8.5903 74.1832 11.0447 65.6 16.8738C61.7682 19.4816 58.7028 22.2427 58.7028 23.0097C58.7028 25.4641 60.2355 24.8505 68.0523 19.0214C74.3365 14.4194 75.7159 13.9592 76.4822 15.9534C78.1682 20.5553 75.7159 25.3107 67.1327 33.7476L58.5495 42.1845L49.5065 32.6738C39.5439 22.5495 38.0112 17.334 42.9159 11.8117C45.0617 9.66409 46.9009 9.20389 51.0393 9.81748C53.9514 10.4311 57.4766 10.7379 58.7028 10.7379ZM37.5514 22.2427C38.1645 24.8505 41.0766 29.299 44.1421 32.2136C47.0542 35.1282 49.5065 38.1961 49.5065 39.2699C49.5065 40.3437 47.3607 42.9515 44.7551 45.2524L39.8505 49.2408L36.172 45.7126L32.4935 42.1845L37.5514 38.0427C43.3757 33.2874 40.6168 32.2136 34.3327 36.8155L30.0411 39.7301L25.7495 35.2816C17.6262 26.8447 21.3047 16.1068 31.7271 17.1806C35.4056 17.4874 36.4785 18.5612 37.5514 22.2427ZM18.086 45.866C19.3122 48.0136 9.80935 54.4563 7.97009 52.6155C6.8972 51.5418 8.12336 49.8544 11.4953 47.8602C17.4729 44.0253 16.8598 44.1787 18.086 45.866ZM21.9178 52.002C21.9178 53.3825 13.9477 59.8253 12.1084 59.8253C9.5028 59.8253 11.6486 55.6835 15.4804 53.3825C20.2318 50.3146 21.9178 50.0078 21.9178 52.002Z" fill="#FF0000"/>
</svg>
